<?xml version="1.0" encoding="UTF-8" standalone="no"?>
<!-- Created with Inkscape (http://www.inkscape.org/) -->
<svg
   xmlns:dc="http://purl.org/dc/elements/1.1/"
   xmlns:cc="http://creativecommons.org/ns#"
   xmlns:rdf="http://www.w3.org/1999/02/22-rdf-syntax-ns#"
   xmlns:svg="http://www.w3.org/2000/svg"
   xmlns="http://www.w3.org/2000/svg"
   xmlns:sodipodi="http://sodipodi.sourceforge.net/DTD/sodipodi-0.dtd"
   xmlns:inkscape="http://www.inkscape.org/namespaces/inkscape"
   width="192"
   height="192"
   id="svg2394"
   sodipodi:version="0.32"
   inkscape:version="0.46"
   sodipodi:docname="gnome-head-192.svg"
   inkscape:output_extension="org.inkscape.output.svg.inkscape"
   version="1.0">
  <defs
     id="defs2396">
    <inkscape:perspective
       sodipodi:type="inkscape:persp3d"
       inkscape:vp_x="0 : 32 : 1"
       inkscape:vp_y="0 : 1000 : 0"
       inkscape:vp_z="64 : 32 : 1"
       inkscape:persp3d-origin="32 : 21.333333 : 1"
       id="perspective2402" />
  </defs>
  <sodipodi:namedview
     id="base"
     pagecolor="#ffffff"
     bordercolor="#666666"
     borderopacity="1.0"
     inkscape:pageopacity="0.0"
     inkscape:pageshadow="2"
     inkscape:zoom="2.67"
     inkscape:cx="70.824046"
     inkscape:cy="68.861721"
     inkscape:current-layer="layer1"
     showgrid="true"
     inkscape:document-units="px"
     inkscape:grid-bbox="true"
     inkscape:window-width="1159"
     inkscape:window-height="862"
     inkscape:window-x="80"
     inkscape:window-y="27" />
  <metadata
     id="metadata2399">
    <rdf:RDF>
      <cc:Work
         rdf:about="">
        <dc:format>image/svg+xml</dc:format>
        <dc:type
           rdf:resource="http://purl.org/dc/dcmitype/StillImage" />
      </cc:Work>
    </rdf:RDF>
  </metadata>
  <g
     id="layer1"
     inkscape:label="Layer 1"
     inkscape:groupmode="layer">
    <path
       style="fill:#fcbc7a;fill-opacity:1;fill-rule:evenodd;stroke:#000000;stroke-width:1.611;stroke-linecap:butt;stroke-linejoin:miter;stroke-opacity:1;stroke-miterlimit:4;stroke-dasharray:none"
       d="M 63.879888,113.64517 C 62.737038,108.50232 58.788498,107.04804 56.437768,107.20644 C 54.368028,107.34591 54.113208,111.10097 54.012588,113.45148 C 53.864008,116.92242 55.229588,127.67411 58.305078,127.77786 C 61.480448,127.88498 64.310028,119.60149 63.879888,113.64517 z"
       id="path3159"
       sodipodi:nodetypes="csssc" />
    <path
       style="fill:#fcbc7a;fill-rule:evenodd;stroke:#000000;stroke-width:1.611;stroke-linecap:butt;stroke-linejoin:miter;stroke-opacity:1;fill-opacity:1;stroke-miterlimit:4;stroke-dasharray:none"
       d="M 129.28233,115.01017 C 130.42518,109.86731 134.37372,108.41303 136.72445,108.57143 C 138.79419,108.7109 139.04901,112.46596 139.14963,114.81648 C 139.29821,118.28742 137.93263,129.03911 134.85714,129.14286 C 131.68177,129.24998 128.85219,120.96649 129.28233,115.01017 z"
       id="path2387"
       sodipodi:nodetypes="csssc" />
    <path
       style="fill:#ac0613;fill-opacity:1;fill-rule:evenodd;stroke:#000000;stroke-width:1.61144412;stroke-linecap:butt;stroke-linejoin:miter;stroke-miterlimit:4;stroke-dasharray:none;stroke-opacity:1"
       d="M 96.325869,6.7645176 L 129.14073,112.82684 L 64.096986,112.82684 L 96.325869,6.7645176 z"
       id="path2404" />
    <path
       sodipodi:type="arc"
       style="opacity:1;fill:#fcbc7a;fill-opacity:1;fill-rule:evenodd;stroke:#000000;stroke-width:0.5;stroke-linecap:round;stroke-miterlimit:4;stroke-dasharray:none;stroke-opacity:1"
       id="path2414"
       sodipodi:cx="32.359081"
       sodipodi:cy="41.192066"
       sodipodi:rx="10.85595"
       sodipodi:ry="4.9582462"
       d="M 43.215032,41.192066 A 10.85595,4.9582462 0 1 1 21.503131,41.192066"
       sodipodi:start="0"
       sodipodi:end="3.1415927"
       sodipodi:open="true"
       transform="matrix(2.9798854,0,0,6.3655082,0.3839594,-148.51314)" />
    <path
       sodipodi:type="arc"
       style="opacity:1;fill:#fcbc7a;fill-opacity:1;fill-rule:evenodd;stroke:#000000;stroke-width:0.5;stroke-linecap:round;stroke-miterlimit:4;stroke-dasharray:none;stroke-opacity:1"
       id="path2406"
       sodipodi:cx="32.18182"
       sodipodi:cy="38.909092"
       sodipodi:rx="2.7272727"
       sodipodi:ry="2.3636363"
       d="M 34.909093,38.909092 A 2.7272727,2.3636363 0 1 1 29.454547,38.909092 A 2.7272727,2.3636363 0 1 1 34.909093,38.909092 z"
       transform="matrix(3.2228882,0,0,3.2228882,-6.8065546,-3.197137)" />
    <path
       style="fill:#ffffff;fill-opacity:1;fill-rule:evenodd;stroke:#000000;stroke-width:1.61144412;stroke-linecap:butt;stroke-linejoin:miter;stroke-miterlimit:4;stroke-dasharray:none;stroke-opacity:1"
       d="M 128.45404,127.7327 C 128.45404,127.7327 125.04645,132.93919 118.34824,135.4472 C 111.54165,137.99578 106.755,137.99858 96.426584,135.13033 L 96.426584,135.23105 C 85.358654,137.88576 79.939103,138.96973 75.614902,136.65788 C 69.307404,133.2857 64.499851,127.83342 64.499847,127.83342 C 64.499847,127.83342 54.42243,144.65409 54.730467,155.12725 C 55.066882,166.56548 75.598082,175.94104 82.326448,176.27746 C 88.355988,176.57893 93.711768,177.64425 96.426584,181.91751 C 96.451645,181.95695 96.502683,181.97822 96.527299,182.01822 L 96.527299,181.81679 C 99.242115,177.54353 104.5979,176.47822 110.62744,176.17674 C 117.35581,175.84032 137.887,166.36405 138.22341,154.92582 C 138.53145,144.45265 128.45404,127.7327 128.45404,127.7327 z"
       id="path2418"
       sodipodi:nodetypes="csccscsssccssc" />
    <path
       style="fill:#ffffff;fill-opacity:1;fill-rule:evenodd;stroke:#000000;stroke-width:1.61144412;stroke-linecap:butt;stroke-linejoin:miter;stroke-miterlimit:4;stroke-dasharray:none;stroke-opacity:1"
       d="M 104.866,127.89961 C 123.12439,132.01117 127.15438,123.50589 129.30343,114.16151 C 134.14842,118.63629 138.52058,128.22205 134.50141,133.94413 C 129.53082,141.02073 96.900835,138.11083 96.900835,134.59495 C 96.900835,128.0513 101.76239,130.16768 104.866,127.89961 z"
       id="path2408"
       sodipodi:nodetypes="ccssc" />
    <path
       style="fill:#ffffff;fill-opacity:1;fill-rule:evenodd;stroke:#000000;stroke-width:1.61144412;stroke-linecap:butt;stroke-linejoin:miter;stroke-miterlimit:4;stroke-dasharray:none;stroke-opacity:1"
       d="M 88.48268,127.79909 C 70.224293,131.91064 65.857885,123.40537 63.708831,114.06098 C 58.863844,118.53577 54.828102,128.12153 58.847278,133.84361 C 63.817865,140.92021 96.447848,138.0103 96.447848,134.49443 C 96.447848,127.95078 91.586296,130.06716 88.48268,127.79909 z"
       id="path2412"
       sodipodi:nodetypes="ccssc" />
    <path
       style="fill:#ffffff;fill-opacity:1;fill-rule:evenodd;stroke:#000000;stroke-width:1.611;stroke-linecap:butt;stroke-linejoin:miter;stroke-miterlimit:4;stroke-dasharray:none;stroke-opacity:1"
       d="M 106.24543,114.38723 C 106.24543,112.09896 111.17602,110.27189 116.32785,110.60623 C 120.25143,110.86086 124.73342,116.8636 124.23549,118.41776 C 123.69214,120.11367 119.21052,115.70144 115.69185,115.24223 C 110.46555,114.56016 105.87795,116.55793 106.24543,114.38723 z"
       id="path3213"
       sodipodi:nodetypes="csssc" />
    <path
       style="fill:#ffffff;fill-opacity:1;fill-rule:evenodd;stroke:#000000;stroke-width:1.611;stroke-linecap:butt;stroke-linejoin:miter;stroke-miterlimit:4;stroke-dasharray:none;stroke-opacity:1"
       d="M 87.58527,114.37593 C 87.58527,112.08766 82.65468,110.26059 77.502851,110.59493 C 73.579268,110.84956 69.097275,116.8523 69.595205,118.40646 C 70.138551,120.10237 74.62018,115.69013 78.138843,115.23092 C 83.365143,114.54886 87.952744,116.54663 87.58527,114.37593 z"
       id="path3217"
       sodipodi:nodetypes="csssc" />
  </g>
</svg>
